<svg width="43" height="25" viewBox="0 0 43 25" fill="none" xmlns="http://www.w3.org/2000/svg">
<path d="M15.4153 0.520101L15.6727 4.11513H15.7771C17.2731 1.30377 19.3848 0 22.0671 0C25.4695 0 27.2855 1.40568 28.4614 4.11513H28.5623C30.6775 0.832865 33.1511 0 35.3184 0C41.7476 0 43 4.4806 43 9.11231V25H34.7514V11.0416C34.7514 8.80306 34.8523 6.61372 32.4831 6.61372C30.0061 6.61372 29.5955 8.59221 29.5955 10.8835V25H21.3434V11.0416C21.3434 8.80306 21.4478 6.61372 19.0752 6.61372C16.6016 6.61372 16.1876 8.59221 16.1876 10.8835V25H8.04337V10.3107C5.98034 10.3634 3.76424 9.16503 3.86861 6.04091C1.54814 5.88628 0 4.26975 0 1.25105V0.520101H15.4153Z" fill="#F50F64"/>
</svg>
