<svg width="31" height="31" viewBox="0 0 31 31" fill="none" xmlns="http://www.w3.org/2000/svg">
<path fill-rule="evenodd" clip-rule="evenodd" d="M0 15.4071C0 6.89798 6.89798 0 15.4071 0C23.9161 0 30.8141 6.89798 30.8141 15.4071C30.8141 23.9161 23.9161 30.8141 15.4071 30.8141C6.89798 30.8141 0 23.9161 0 15.4071ZM15.4071 7.70353C19.644 7.70353 23.1106 11.1701 23.1106 15.4071C23.1106 19.2588 20.3181 22.5328 16.4663 23.1106V17.6218H18.2959L18.6811 15.4071H16.5626V13.9626C16.5626 13.3849 16.8515 12.8071 17.8144 12.8071H18.7774V10.8812C18.7774 10.8812 17.9107 10.6886 17.0441 10.6886C15.3108 10.6886 14.1552 11.7479 14.1552 13.6738V15.4071H12.2294V17.6218H14.1552V23.0143C10.4961 22.4365 7.70353 19.2588 7.70353 15.4071C7.70353 11.1701 11.1701 7.70353 15.4071 7.70353Z" fill="#F50F64"/>
</svg>
