<svg width="31" height="31" viewBox="0 0 31 31" fill="none" xmlns="http://www.w3.org/2000/svg">
<path fill-rule="evenodd" clip-rule="evenodd" d="M30.8844 15.4071C30.8844 6.89798 23.9865 0 15.4774 0C6.96829 0 0.0703125 6.89798 0.0703125 15.4071C0.0703125 23.9161 6.96829 30.8141 15.4774 30.8141C23.9865 30.8141 30.8844 23.9161 30.8844 15.4071ZM8.85234 8.78202C7.77384 9.87079 7.77384 11.6118 7.77384 15.0989V15.7152C7.77384 19.1972 7.77384 20.9382 8.85234 22.0321C9.9411 23.1106 11.6821 23.1106 15.1692 23.1106H15.7855C19.2675 23.1106 21.0085 23.1106 22.1024 22.0321C23.1809 20.9433 23.1809 19.2023 23.1809 15.7152V15.0989C23.1809 11.6169 23.1809 9.87593 22.1024 8.78202C21.0136 7.70353 19.2726 7.70353 15.7855 7.70353H15.1692C11.6872 7.70353 9.94624 7.70353 8.85234 8.78202Z" fill="#F50F64"/>
<path d="M15.9704 18.8018C12.4576 18.8018 10.4547 16.3983 10.3725 12.3924H12.1392C12.1957 15.33 13.4899 16.5729 14.517 16.8297V12.3924H16.1758V14.9243C17.1876 14.8165 18.2558 13.6609 18.6153 12.3873H20.269C20.1341 13.0466 19.8648 13.671 19.4777 14.2215C19.0907 14.772 18.5943 15.2368 18.0195 15.5868C18.661 15.9061 19.2274 16.3577 19.6815 16.9118C20.1357 17.466 20.4672 18.1101 20.6541 18.8018H18.831C18.4407 17.5846 17.4649 16.6396 16.1758 16.5112V18.8018H15.9704Z" fill="#F50F64"/>
</svg>
