<svg width="30" height="16" viewBox="0 0 30 16" fill="none" xmlns="http://www.w3.org/2000/svg">
<path d="M0 8C0 8.88366 0.716344 9.6 1.6 9.6H1.73333C2.61699 9.6 3.33333 8.88366 3.33333 8C3.33333 7.11634 2.61699 6.4 1.73333 6.4H1.6C0.716343 6.4 0 7.11634 0 8ZM0 14.4C0 15.2837 0.716344 16 1.6 16H1.73333C2.61699 16 3.33333 15.2837 3.33333 14.4C3.33333 13.5163 2.61699 12.8 1.73333 12.8H1.6C0.716343 12.8 0 13.5163 0 14.4ZM0 1.6C0 2.48366 0.716344 3.2 1.6 3.2H1.73333C2.61699 3.2 3.33333 2.48366 3.33333 1.6C3.33333 0.716345 2.61699 0 1.73333 0H1.6C0.716343 0 0 0.716345 0 1.6ZM6.66667 8C6.66667 8.88366 7.38301 9.6 8.26667 9.6H28.4C29.2837 9.6 30 8.88366 30 8C30 7.11634 29.2837 6.4 28.4 6.4H8.26667C7.38301 6.4 6.66667 7.11634 6.66667 8ZM6.66667 14.4C6.66667 15.2837 7.38301 16 8.26667 16H28.4C29.2837 16 30 15.2837 30 14.4C30 13.5163 29.2837 12.8 28.4 12.8H8.26667C7.38301 12.8 6.66667 13.5163 6.66667 14.4ZM8.26667 0C7.38301 0 6.66667 0.716345 6.66667 1.6C6.66667 2.48366 7.38301 3.2 8.26667 3.2H28.4C29.2837 3.2 30 2.48366 30 1.6C30 0.716345 29.2837 0 28.4 0H8.26667ZM0 8C0 8.88366 0.716344 9.6 1.6 9.6H1.73333C2.61699 9.6 3.33333 8.88366 3.33333 8C3.33333 7.11634 2.61699 6.4 1.73333 6.4H1.6C0.716343 6.4 0 7.11634 0 8ZM0 14.4C0 15.2837 0.716344 16 1.6 16H1.73333C2.61699 16 3.33333 15.2837 3.33333 14.4C3.33333 13.5163 2.61699 12.8 1.73333 12.8H1.6C0.716343 12.8 0 13.5163 0 14.4ZM0 1.6C0 2.48366 0.716344 3.2 1.6 3.2H1.73333C2.61699 3.2 3.33333 2.48366 3.33333 1.6C3.33333 0.716345 2.61699 0 1.73333 0H1.6C0.716343 0 0 0.716345 0 1.6ZM6.66667 8C6.66667 8.88366 7.38301 9.6 8.26667 9.6H28.4C29.2837 9.6 30 8.88366 30 8C30 7.11634 29.2837 6.4 28.4 6.4H8.26667C7.38301 6.4 6.66667 7.11634 6.66667 8ZM6.66667 14.4C6.66667 15.2837 7.38301 16 8.26667 16H28.4C29.2837 16 30 15.2837 30 14.4C30 13.5163 29.2837 12.8 28.4 12.8H8.26667C7.38301 12.8 6.66667 13.5163 6.66667 14.4ZM8.26667 0C7.38301 0 6.66667 0.716345 6.66667 1.6C6.66667 2.48366 7.38301 3.2 8.26667 3.2H28.4C29.2837 3.2 30 2.48366 30 1.6C30 0.716345 29.2837 0 28.4 0H8.26667Z" fill="#F50F64"/>
</svg>
