<svg width="15" height="19" viewBox="0 0 15 19" fill="none" xmlns="http://www.w3.org/2000/svg">
<path d="M7.49996 19C6.14668 17.863 4.89232 16.6165 3.74998 15.2736C2.03571 13.2569 9.46776e-07 10.2534 9.46776e-07 7.39128C-0.0015185 4.40209 1.82597 1.70659 4.62969 0.562611C7.43342 -0.581368 10.6607 0.0516618 12.8056 2.16631C14.2161 3.54944 15.0063 5.43088 15 7.39128C15 10.2534 12.9642 13.2569 11.2499 15.2736C10.1076 16.6165 8.85324 17.863 7.49996 19ZM7.49996 2.11459C4.54278 2.11808 2.14639 4.47849 2.14285 7.39128C2.14285 8.62181 2.70749 10.7525 5.39462 13.9196C6.0569 14.6985 6.75962 15.4432 7.49996 16.1506C8.24036 15.444 8.94343 14.7004 9.60638 13.9228C12.2924 10.7515 12.8571 8.62075 12.8571 7.39128C12.8535 4.47849 10.4571 2.11808 7.49996 2.11459ZM7.49996 10.5573C5.72477 10.5573 4.28569 9.13982 4.28569 7.39128C4.28569 5.64274 5.72477 4.22527 7.49996 4.22527C9.27516 4.22527 10.7142 5.64274 10.7142 7.39128C10.7142 8.23096 10.3756 9.03625 9.7728 9.62999C9.17 10.2237 8.35244 10.5573 7.49996 10.5573Z" fill="#F50F64"/>
</svg>
