<svg width="32" height="31" viewBox="0 0 32 31" fill="none" xmlns="http://www.w3.org/2000/svg">
<path d="M16.3216 9.11744C17.3833 9.11744 18.2494 9.98353 18.2494 11.0452C18.2494 12.1068 17.3833 12.9729 16.3216 12.9729C15.2601 12.9729 14.3939 12.1068 14.3939 11.0452C14.3659 9.98353 15.2321 9.11744 16.3216 9.11744Z" fill="#F50F64"/>
<path fill-rule="evenodd" clip-rule="evenodd" d="M16.2918 0C7.78274 0 0.884766 6.89798 0.884766 15.4071C0.884766 23.9161 7.78274 30.8141 16.2918 30.8141C24.8009 30.8141 31.6989 23.9161 31.6989 15.4071C31.6989 6.89798 24.8009 0 16.2918 0ZM16.3216 15.7108C18.892 15.7108 20.9874 13.6155 20.9874 11.0452C20.9874 8.47486 18.892 6.37949 16.3216 6.37949C13.7234 6.37949 11.628 8.47486 11.628 11.0452C11.628 13.6155 13.7234 15.7108 16.3216 15.7108ZM18.1936 19.5385C19.1434 19.3149 20.0654 18.9517 20.9035 18.4209C21.5461 18.0297 21.7417 17.1637 21.3226 16.5211C20.9315 15.8785 20.0654 15.683 19.4228 16.102C17.523 17.3034 15.0365 17.3034 13.1367 16.102C12.4942 15.711 11.656 15.8785 11.2369 16.5211C10.8737 17.1637 11.0693 18.0019 11.7119 18.3929C12.55 18.9238 13.472 19.2869 14.4219 19.5105L11.8236 22.1087C11.2928 22.6396 11.2928 23.5057 11.8236 24.0366C12.103 24.3159 12.4383 24.4276 12.8015 24.4276C13.1647 24.4276 13.4999 24.2879 13.7793 24.0366L16.3496 21.4661L18.92 24.0366C19.4508 24.5673 20.3169 24.5673 20.8477 24.0366C21.3785 23.5057 21.3785 22.6396 20.8477 22.1087L18.1936 19.5385Z" fill="#F50F64"/>
</svg>
