<svg width="32" height="31" viewBox="0 0 32 31" fill="none" xmlns="http://www.w3.org/2000/svg">
<path d="M16.2215 18.1033C14.7771 18.1033 13.5253 16.9478 13.5253 15.4071C13.5253 13.9626 14.6808 12.7108 16.2215 12.7108C17.6659 12.7108 18.9177 13.8664 18.9177 15.4071C18.9177 16.8515 17.6659 18.1033 16.2215 18.1033Z" fill="#F50F64"/>
<path fill-rule="evenodd" clip-rule="evenodd" d="M19.4955 8.85906H12.9475C12.1772 8.95535 11.792 9.05164 11.5031 9.14794C11.1179 9.24423 10.829 9.43682 10.5402 9.7257C10.3116 9.95429 10.2036 10.1829 10.073 10.4592C10.0386 10.532 10.0026 10.6083 9.96239 10.6886C9.9475 10.7333 9.9303 10.7803 9.91186 10.8307C9.81112 11.1059 9.67351 11.4819 9.67351 12.1331V18.6811C9.76981 19.4514 9.8661 19.8366 9.96239 20.1255C10.0587 20.5106 10.2513 20.7995 10.5402 21.0884C10.7687 21.317 10.9973 21.425 11.2736 21.5555C11.3465 21.59 11.4227 21.626 11.5031 21.6662C11.5478 21.6811 11.5948 21.6983 11.6452 21.7167C11.9204 21.8174 12.2963 21.9551 12.9475 21.9551H19.4955C20.2659 21.8588 20.651 21.7625 20.9399 21.6662C21.3251 21.5699 21.614 21.3773 21.9029 21.0884C22.1315 20.8598 22.2395 20.6312 22.37 20.3549C22.4044 20.2821 22.4404 20.2058 22.4806 20.1255C22.4955 20.0808 22.5127 20.0338 22.5312 19.9834C22.6319 19.7082 22.7695 19.3322 22.7695 18.6811V12.1331C22.6732 11.3627 22.5769 10.9775 22.4806 10.6886C22.3843 10.3035 22.1917 10.0146 21.9029 9.7257C21.6743 9.49711 21.4457 9.38911 21.1694 9.25857C21.0966 9.22419 21.0202 9.18806 20.9399 9.14794C20.8952 9.13304 20.8482 9.11584 20.7979 9.09741C20.5227 8.99667 20.1467 8.85906 19.4955 8.85906ZM16.2215 11.2664C13.9105 11.2664 12.0809 13.096 12.0809 15.4071C12.0809 17.7181 13.9105 19.5477 16.2215 19.5477C18.5326 19.5477 20.3622 17.7181 20.3622 15.4071C20.3622 13.096 18.5326 11.2664 16.2215 11.2664ZM21.4214 11.1701C21.4214 11.7019 20.9903 12.1331 20.4585 12.1331C19.9266 12.1331 19.4955 11.7019 19.4955 11.1701C19.4955 10.6383 19.9266 10.2072 20.4585 10.2072C20.9903 10.2072 21.4214 10.6383 21.4214 11.1701Z" fill="#F50F64"/>
<path fill-rule="evenodd" clip-rule="evenodd" d="M0.814453 15.4071C0.814453 6.89798 7.71243 0 16.2215 0C24.7306 0 31.6286 6.89798 31.6286 15.4071C31.6286 23.9161 24.7306 30.8141 16.2215 30.8141C7.71243 30.8141 0.814453 23.9161 0.814453 15.4071ZM12.9475 7.41464H19.4955C20.3622 7.51094 20.9399 7.60723 21.4214 7.79982C21.9992 8.0887 22.3843 8.28129 22.8658 8.76276C23.3473 9.24423 23.6362 9.7257 23.8287 10.2072C24.0213 10.6886 24.2139 11.2664 24.2139 12.1331V18.6811C24.1176 19.5477 24.0213 20.1255 23.8287 20.6069C23.5399 21.1847 23.3473 21.5699 22.8658 22.0513C22.3843 22.5328 21.9029 22.8217 21.4214 23.0143C20.9399 23.2069 20.3622 23.3995 19.4955 23.3995H12.9475C12.0809 23.3032 11.5031 23.2069 11.0216 23.0143C10.4439 22.7254 10.0587 22.5328 9.57722 22.0513C9.09575 21.5699 8.80687 21.0884 8.61428 20.6069C8.42169 20.1255 8.2291 19.5477 8.2291 18.6811V12.1331C8.32539 11.2664 8.42169 10.6886 8.61428 10.2072C8.90316 9.62941 9.09575 9.24423 9.57722 8.76276C10.0587 8.28129 10.5402 7.99241 11.0216 7.79982C11.5031 7.60723 12.0809 7.41464 12.9475 7.41464Z" fill="#F50F64"/>
</svg>
