<svg width="32" height="31" viewBox="0 0 32 31" fill="none" xmlns="http://www.w3.org/2000/svg">
<path fill-rule="evenodd" clip-rule="evenodd" d="M15.6649 30.8141C7.15579 30.8141 0.257812 23.9161 0.257812 15.4071C0.257812 6.89798 7.15579 0 15.6649 0C24.174 0 31.0719 6.89798 31.0719 15.4071C31.0719 23.9161 24.174 30.8141 15.6649 30.8141ZM16.3311 11.5624C14.9512 12.1363 12.1933 13.3243 8.05756 15.1262C7.38597 15.3932 7.03416 15.6545 7.00213 15.91C6.94801 16.3417 7.48868 16.5117 8.22493 16.7432C8.32508 16.7747 8.42885 16.8074 8.53524 16.8419C9.2596 17.0774 10.234 17.3529 10.7405 17.3638C11.2 17.3737 11.7129 17.1843 12.2791 16.7955C16.1433 14.1871 18.138 12.8686 18.2632 12.8402C18.3516 12.8202 18.474 12.795 18.5569 12.8687C18.6399 12.9424 18.6317 13.082 18.623 13.1195C18.5694 13.3478 16.4471 15.321 15.3488 16.342C15.0064 16.6604 14.7635 16.8862 14.7138 16.9377C14.6026 17.0533 14.4893 17.1625 14.3803 17.2676C13.7074 17.9163 13.2027 18.4028 14.4083 19.1972C14.9876 19.579 15.4512 19.8947 15.9137 20.2096C16.4187 20.5536 16.9225 20.8967 17.5743 21.3239C17.7404 21.4328 17.899 21.5458 18.0535 21.656C18.6413 22.075 19.1693 22.4515 19.8217 22.3915C20.2008 22.3566 20.5924 22.0001 20.7913 20.937C21.2613 18.4244 22.1851 12.9805 22.3986 10.7372C22.4173 10.5407 22.3938 10.2892 22.3749 10.1787C22.356 10.0683 22.3165 9.91101 22.173 9.79455C22.003 9.65662 21.7406 9.62754 21.6232 9.6295C21.0896 9.639 20.271 9.92367 16.3311 11.5624Z" fill="#F50F64"/>
</svg>
