<svg width="32" height="31" viewBox="0 0 32 31" fill="none" xmlns="http://www.w3.org/2000/svg">
<path fill-rule="evenodd" clip-rule="evenodd" d="M15.8504 0C7.34134 0 0.443359 6.89798 0.443359 15.4071C0.443359 23.9161 7.34134 30.8141 15.8504 30.8141C24.3595 30.8141 31.2575 23.9161 31.2575 15.4071C31.2575 6.89798 24.3595 0 15.8504 0ZM18.8531 7.70353C18.8531 7.93247 18.8745 8.15794 18.9139 8.37615C19.1033 9.38489 19.7003 10.2505 20.5295 10.7906C21.1086 11.1698 21.7948 11.3881 22.5346 11.3881L22.5345 11.9783V14.0352C21.162 14.0352 19.8896 13.5952 18.853 12.8511V18.2348C18.853 20.9213 16.6657 23.1106 13.9815 23.1106C12.9449 23.1106 11.9798 22.7814 11.1899 22.2269C9.93186 21.3434 9.10983 19.8839 9.10983 18.2348C9.10983 15.5448 11.2937 13.3591 13.9779 13.3626C14.2031 13.3626 14.4211 13.3805 14.6355 13.4092V14.0352L14.6277 14.0389L14.6355 14.0387V16.1135C14.4282 16.0491 14.2066 16.0098 13.9779 16.0098C12.7519 16.0098 11.7547 17.0079 11.7547 18.2348C11.7547 19.0898 12.2408 19.8303 12.9485 20.2059C12.9551 20.2149 12.9618 20.2239 12.9685 20.2329L12.9804 20.2485C12.9723 20.2328 12.9629 20.2174 12.9521 20.2023C13.263 20.3669 13.6133 20.4599 13.985 20.4599C15.1823 20.4599 16.1617 19.5048 16.2046 18.3171L16.2082 7.70353H18.8531Z" fill="#F50F64"/>
</svg>
