<svg width="32" height="31" viewBox="0 0 32 31" fill="none" xmlns="http://www.w3.org/2000/svg">
<path fill-rule="evenodd" clip-rule="evenodd" d="M0.628906 15.4071C0.628906 6.89798 7.52688 0 16.036 0C24.545 0 31.443 6.89798 31.443 15.4071C31.443 23.9161 24.545 30.8141 16.036 30.8141C7.52688 30.8141 0.628906 23.9161 0.628906 15.4071ZM21.9099 11.0738C22.584 10.9775 23.1617 10.8812 23.7395 10.5924C23.3543 11.2664 22.7766 11.8442 22.1025 12.2294C22.2951 16.7552 19.0211 21.6662 13.1471 21.6662C11.4138 21.6662 9.77685 21.0884 8.33244 20.2218C9.96944 20.4144 11.7027 19.9329 12.8583 19.0662C11.4138 19.0662 10.2583 18.1033 9.87314 16.8515C10.3546 16.9478 10.8361 16.8515 11.3176 16.7552C9.87314 16.37 8.81391 15.0219 8.81391 13.5775C9.29538 13.7701 9.77685 13.9626 10.2583 13.9626C8.9102 12.9997 8.42873 11.1701 9.29538 9.72571C10.9324 11.6516 13.2434 12.9034 15.8434 12.9997C15.3619 11.0738 16.9026 9.14794 18.9248 9.14794C19.7914 9.14794 20.6581 9.53312 21.2358 10.1109C22.0062 9.91829 22.6803 9.72571 23.258 9.34053C23.0654 10.1109 22.584 10.6886 21.9099 11.0738Z" fill="#F50F64"/>
</svg>
